<svg width="628" height="145" viewBox="0 0 628 145" fill="none" xmlns="http://www.w3.org/2000/svg">
<path d="M473.403 116V50.8645H493.546V62.7381H494.224C495.412 58.441 497.348 55.2464 500.034 53.1544C502.72 51.0341 505.844 49.974 509.406 49.974C510.367 49.974 511.356 50.0446 512.374 50.186C513.392 50.2991 514.339 50.4828 515.215 50.7373V68.7598C514.226 68.4205 512.925 68.152 511.314 67.9541C509.731 67.7562 508.317 67.6572 507.073 67.6572C504.614 67.6572 502.395 68.2085 500.416 69.3111C498.465 70.3853 496.924 71.8978 495.793 73.8485C494.691 75.7709 494.14 78.0326 494.14 80.6334V116H473.403ZM523.665 116V50.8645H543.384V62.823H544.104C545.461 58.8651 547.751 55.7412 550.974 53.4512C554.197 51.1613 558.042 50.0164 562.509 50.0164C567.032 50.0164 570.905 51.1755 574.128 53.4937C577.351 55.8118 579.4 58.9216 580.277 62.823H580.955C582.171 58.9499 584.546 55.8542 588.079 53.5361C591.613 51.1896 595.783 50.0164 600.589 50.0164C606.752 50.0164 611.756 51.9953 615.601 55.9532C619.446 59.8828 621.368 65.2825 621.368 72.1523V116H600.632V76.9017C600.632 73.6506 599.798 71.1769 598.13 69.4807C596.462 67.7562 594.299 66.8939 591.641 66.8939C588.786 66.8939 586.539 67.8269 584.899 69.6927C583.288 71.5303 582.482 74.004 582.482 77.1138V116H562.551V76.6897C562.551 73.6647 561.731 71.2759 560.091 69.5231C558.452 67.7703 556.289 66.8939 553.603 66.8939C551.794 66.8939 550.197 67.3321 548.811 68.2085C547.426 69.0566 546.338 70.2723 545.546 71.8554C544.783 73.4386 544.401 75.3044 544.401 77.453V116H523.665Z" fill="#221F1F"/>
<path d="M43.3389 50.8645V66.1306H2.24751V50.8645H43.3389ZM10.8559 35.2591H31.5924V95.5179C31.5924 96.7901 31.7903 97.822 32.1861 98.6136C32.6102 99.3769 33.218 99.9281 34.0096 100.267C34.8011 100.578 35.7482 100.734 36.8508 100.734C37.6423 100.734 38.4763 100.663 39.3527 100.522C40.2574 100.352 40.9359 100.211 41.3882 100.098L44.5262 115.067C43.5368 115.35 42.1374 115.703 40.328 116.127C38.547 116.551 36.4126 116.82 33.9247 116.933C29.0622 117.159 24.8923 116.594 21.415 115.237C17.966 113.851 15.3227 111.703 13.4851 108.791C11.6758 105.879 10.7994 102.218 10.8559 97.8079V35.2591ZM53.9191 116V50.8645H74.062V62.7381H74.7405C75.9278 58.441 77.8644 55.2464 80.5501 53.1544C83.2358 51.0341 86.3597 49.974 89.9218 49.974C90.883 49.974 91.8725 50.0446 92.8902 50.186C93.9079 50.2991 94.855 50.4828 95.7314 50.7373V68.7598C94.7419 68.4205 93.4415 68.152 91.8301 67.9541C90.2469 67.7562 88.8334 67.6572 87.5895 67.6572C85.1299 67.6572 82.9107 68.2085 80.9317 69.3111C78.9811 70.3853 77.4403 71.8978 76.3095 73.8485C75.2069 75.7709 74.6556 78.0326 74.6556 80.6334V116H53.9191ZM120.094 117.103C115.938 117.103 112.249 116.41 109.026 115.025C105.831 113.611 103.301 111.491 101.435 108.664C99.5974 105.808 98.6786 102.232 98.6786 97.9351C98.6786 94.3164 99.3147 91.2632 100.587 88.7754C101.859 86.2876 103.612 84.2662 105.845 82.7113C108.079 81.1565 110.651 79.9832 113.563 79.1916C116.475 78.3718 119.585 77.8205 122.892 77.5378C126.596 77.1986 129.578 76.8452 131.84 76.4777C134.102 76.0819 135.741 75.5306 136.759 74.8238C137.805 74.0888 138.328 73.0569 138.328 71.7282V71.5162C138.328 69.3393 137.579 67.6572 136.081 66.4699C134.582 65.2825 132.561 64.6888 130.017 64.6888C127.274 64.6888 125.069 65.2825 123.401 66.4699C121.733 67.6572 120.673 69.2969 120.221 71.389L101.096 70.7105C101.661 66.7526 103.117 63.2187 105.464 60.109C107.838 56.9709 111.089 54.5114 115.217 52.7303C119.373 50.921 124.362 50.0164 130.186 50.0164C134.342 50.0164 138.173 50.5111 141.678 51.5006C145.184 52.4618 148.237 53.8753 150.838 55.7412C153.439 57.5788 155.446 59.8404 156.86 62.5261C158.301 65.2118 159.022 68.2792 159.022 71.7282V116H139.516V106.925H139.007C137.848 109.13 136.363 110.996 134.554 112.523C132.773 114.049 130.667 115.194 128.236 115.958C125.833 116.721 123.119 117.103 120.094 117.103ZM126.497 103.533C128.73 103.533 130.738 103.08 132.519 102.176C134.328 101.271 135.77 100.027 136.844 98.4439C137.918 96.8325 138.455 94.9667 138.455 92.8464V86.6551C137.862 86.9661 137.141 87.2488 136.293 87.5032C135.473 87.7576 134.568 87.9979 133.579 88.2241C132.589 88.4503 131.571 88.6482 130.525 88.8178C129.479 88.9874 128.476 89.1429 127.515 89.2843C125.564 89.5952 123.896 90.0758 122.511 90.7261C121.154 91.3763 120.108 92.2244 119.373 93.2704C118.666 94.2882 118.313 95.5038 118.313 96.9173C118.313 99.0659 119.076 100.706 120.602 101.836C122.157 102.967 124.122 103.533 126.497 103.533ZM192.438 78.8524V116H171.702V50.8645H191.42V62.823H192.141C193.583 58.8368 196.043 55.7129 199.52 53.4512C202.997 51.1613 207.139 50.0164 211.945 50.0164C216.525 50.0164 220.497 51.0482 223.861 53.112C227.253 55.1475 229.883 58.0028 231.748 61.678C233.643 65.3249 234.576 69.5938 234.547 74.4846V116H213.811V78.5556C213.839 74.9369 212.92 72.1099 211.054 70.0744C209.217 68.0389 206.658 67.0211 203.379 67.0211C201.202 67.0211 199.28 67.5017 197.612 68.4629C195.972 69.3959 194.7 70.7387 193.795 72.4915C192.919 74.2443 192.466 76.3646 192.438 78.8524ZM304.252 70.7529L285.212 71.2617C285.014 69.9047 284.477 68.7032 283.6 67.6572C282.724 66.5829 281.579 65.749 280.165 65.1553C278.78 64.5333 277.169 64.2224 275.331 64.2224C272.928 64.2224 270.879 64.703 269.182 65.6642C267.514 66.6254 266.694 67.9258 266.723 69.5655C266.694 70.8377 267.203 71.9402 268.249 72.8732C269.324 73.8061 271.232 74.5553 273.974 75.1207L286.526 77.4954C293.029 78.7393 297.863 80.8031 301.029 83.6867C304.224 86.5703 305.835 90.3868 305.863 95.1363C305.835 99.603 304.506 103.49 301.877 106.798C299.276 110.106 295.714 112.678 291.191 114.516C286.668 116.325 281.494 117.23 275.67 117.23C266.369 117.23 259.033 115.322 253.662 111.505C248.319 107.66 245.265 102.515 244.502 96.0692L264.984 95.5603C265.436 97.9351 266.61 99.7444 268.504 100.988C270.398 102.232 272.815 102.854 275.755 102.854C278.413 102.854 280.575 102.359 282.243 101.37C283.911 100.38 284.759 99.0659 284.788 97.4262C284.759 95.9561 284.109 94.7829 282.837 93.9065C281.565 93.0018 279.572 92.2951 276.858 91.7862L265.493 89.6235C258.962 88.4361 254.1 86.2452 250.905 83.0506C247.711 79.8277 246.128 75.7285 246.156 70.7529C246.128 66.3992 247.287 62.6816 249.633 59.6001C251.98 56.4903 255.316 54.1156 259.641 52.4759C263.966 50.8362 269.069 50.0164 274.949 50.0164C283.77 50.0164 290.725 51.8681 295.813 55.5715C300.902 59.2467 303.715 64.3072 304.252 70.7529ZM353.093 50.8645V66.1306H311.196V50.8645H353.093ZM319.932 116V47.5568C319.932 42.5246 320.879 38.3547 322.773 35.0471C324.667 31.7111 327.296 29.2233 330.66 27.5836C334.024 25.9157 337.912 25.0817 342.322 25.0817C345.206 25.0817 347.92 25.3078 350.464 25.7602C353.036 26.1842 354.945 26.5659 356.189 26.9051L352.881 42.0865C352.118 41.832 351.185 41.62 350.082 41.4504C349.008 41.2807 347.99 41.1959 347.029 41.1959C344.598 41.1959 342.93 41.7331 342.025 42.8074C341.12 43.8816 340.668 45.3517 340.668 47.2176V116H319.932ZM391.375 117.23C384.533 117.23 378.653 115.83 373.734 113.032C368.843 110.205 365.069 106.275 362.412 101.243C359.783 96.1823 358.468 90.3161 358.468 83.6443C358.468 76.9441 359.783 71.078 362.412 66.0458C365.069 60.9854 368.843 57.0557 373.734 54.257C378.653 51.4299 384.533 50.0164 391.375 50.0164C398.216 50.0164 404.083 51.4299 408.973 54.257C413.893 57.0557 417.667 60.9854 420.296 66.0458C422.953 71.078 424.282 76.9441 424.282 83.6443C424.282 90.3161 422.953 96.1823 420.296 101.243C417.667 106.275 413.893 110.205 408.973 113.032C404.083 115.83 398.216 117.23 391.375 117.23ZM391.502 101.582C393.99 101.582 396.096 100.819 397.821 99.2921C399.545 97.7654 400.86 95.6452 401.764 92.9312C402.697 90.2172 403.164 87.0792 403.164 83.5171C403.164 79.8984 402.697 76.7321 401.764 74.0181C400.86 71.3041 399.545 69.1838 397.821 67.6572C396.096 66.1306 393.99 65.3673 391.502 65.3673C388.93 65.3673 386.753 66.1306 384.972 67.6572C383.219 69.1838 381.876 71.3041 380.943 74.0181C380.038 76.7321 379.586 79.8984 379.586 83.5171C379.586 87.0792 380.038 90.2172 380.943 92.9312C381.876 95.6452 383.219 97.7654 384.972 99.2921C386.753 100.819 388.93 101.582 391.502 101.582Z" fill="#221F1F"/>
<path d="M373.581 112.438C378.5 115.237 384.38 116.636 391.222 116.636C398.063 116.636 403.929 115.237 408.82 112.438C413.739 109.611 417.513 105.682 420.143 100.649C422.8 95.589 424.129 89.7229 424.129 83.051C424.129 76.3509 422.8 70.4847 420.143 65.4525C417.513 60.3921 413.739 56.4625 408.82 53.6637C403.929 50.8366 398.063 49.4231 391.222 49.4231C384.38 49.4231 378.5 50.8366 373.581 53.6637C368.69 56.4625 364.916 60.3921 362.258 65.4525C359.629 70.4847 358.315 76.3509 358.315 83.051C358.315 89.7229 359.629 95.589 362.258 100.649C364.916 105.682 368.69 109.611 373.581 112.438Z" fill="#221F1F"/>
<path d="M439.79 80.0615L439.787 80.0665C437.395 84.6447 433.983 88.1974 429.509 90.7692C425.104 93.2897 419.719 94.6114 413.247 94.6114C406.778 94.6114 401.378 93.291 396.942 90.769C392.499 88.1987 389.085 84.6461 386.663 80.0641C384.267 75.448 383.026 70.0223 383.026 63.7119C383.026 57.3681 384.269 51.9438 386.663 47.3595C389.086 42.7464 392.501 39.1963 396.94 36.6559L396.945 36.6534C401.38 34.1042 406.779 32.77 413.247 32.77C419.716 32.77 425.097 34.1044 429.501 36.65L429.509 36.6546L429.517 36.6592C433.983 39.1998 437.392 42.7471 439.784 47.3518L439.789 47.3598L439.793 47.3677C442.213 51.9502 443.468 57.3714 443.468 63.7119C443.468 70.0216 442.214 75.446 439.79 80.0615Z" fill="white" stroke="white" stroke-width="5.37204"/>
<path d="M458.715 60.2227L458.712 60.2296C456.415 64.6263 453.147 68.0282 448.851 70.4978C444.64 72.907 439.448 74.1976 433.124 74.1976C426.804 74.1976 421.596 72.9089 417.354 70.4976C413.089 68.0301 409.819 64.6282 407.492 60.2262C405.188 55.7879 403.977 50.5384 403.977 44.3725C403.977 38.1714 405.191 32.9238 407.492 28.5188C409.821 24.0845 413.092 20.6861 417.351 18.249L417.357 18.2456C421.599 15.8075 426.805 14.5051 433.124 14.5051C439.444 14.5051 444.631 15.8078 448.84 18.2409L448.851 18.2473L448.863 18.2536C453.147 20.6911 456.41 24.0854 458.708 28.5078L458.714 28.519L458.719 28.5301C461.044 32.9326 462.27 38.1759 462.27 44.3725C462.27 50.5374 461.046 55.7851 458.715 60.2227Z" fill="#F9D949" stroke="#F9D949" stroke-width="7.52086"/>
</svg>
